<?xml version="1.0" encoding="utf-8"?><svg version="1.1" id="Layer_1" xmlns="http://www.w3.org/2000/svg" xmlns:xlink="http://www.w3.org/1999/xlink" x="0px" y="0px" viewBox="0 0 122.88 122.88" style="enable-background:new 0 0 122.88 122.88" xml:space="preserve"><g><path d="M61.44,0c16.97,0,32.33,6.88,43.44,18c11.12,11.12,18,26.48,18,43.44c0,16.97-6.88,32.33-18,43.44 c-23.96,23.96-62.86,24.03-86.89,0C6.88,93.77,0,78.41,0,61.44C0,44.47,6.88,29.11,18,18C29.11,6.88,44.47,0,61.44,0L61.44,0z M20.46,74.98c-0.82-0.18-1.34-1-1.15-1.82c0.18-0.82,1-1.34,1.82-1.15l5.7,1.29c0.82,0.18,1.34,1,1.15,1.82 c-0.18,0.82-1,1.34-1.82,1.15L20.46,74.98L20.46,74.98z M102.23,38.84c-0.49-0.11-0.8-0.6-0.69-1.09c0.11-0.49,0.6-0.8,1.09-0.69 l3.4,0.77c0.49,0.11,0.8,0.6,0.69,1.09c-0.11,0.49-0.6,0.8-1.09,0.69L102.23,38.84L102.23,38.84z M85.22,18.18 c-0.82-0.18-1.34-1-1.15-1.82c0.18-0.82,1-1.34,1.82-1.15l5.7,1.29c0.82,0.18,1.34,1,1.15,1.82c-0.18,0.82-1,1.34-1.82,1.15 L85.22,18.18L85.22,18.18z M93.1,49.6c-0.49-0.11-0.8-0.6-0.69-1.09c0.11-0.49,0.6-0.8,1.09-0.69l3.4,0.77 c0.49,0.11,0.8,0.6,0.69,1.09c-0.11,0.49-0.6,0.8-1.09,0.69L93.1,49.6L93.1,49.6z M17.15,48.07c0.46-0.71,1.41-0.91,2.12-0.44 c0.71,0.46,0.91,1.41,0.44,2.12l-3.21,4.89c-0.46,0.71-1.41,0.9-2.12,0.44c-0.71-0.46-0.91-1.41-0.44-2.12L17.15,48.07L17.15,48.07 z M21.77,33.12c-1-0.23-1.64-1.22-1.41-2.23c0.23-1,1.22-1.64,2.23-1.41l6.97,1.58c1,0.23,1.64,1.22,1.41,2.23 c-0.23,1-1.22,1.64-2.23,1.41L21.77,33.12L21.77,33.12z M58.16,14.89c-0.63-0.14-1.03-0.77-0.89-1.4c0.14-0.63,0.77-1.03,1.4-0.89 l4.39,0.99c0.63,0.14,1.03,0.77,0.89,1.4c-0.14,0.63-0.77,1.03-1.4,0.89L58.16,14.89L58.16,14.89z M105.58,60.29 c-0.82-0.19-1.34-1-1.15-1.82c0.19-0.82,1-1.34,1.82-1.15l5.7,1.29c0.82,0.19,1.34,1,1.15,1.82c-0.19,0.82-1,1.34-1.82,1.15 L105.58,60.29L105.58,60.29z M86.98,31.44c-0.82-0.18-1.34-1-1.15-1.82c0.18-0.82,1-1.34,1.82-1.15l5.7,1.29 c0.82,0.18,1.34,1,1.15,1.82c-0.19,0.82-1,1.34-1.82,1.15L86.98,31.44L86.98,31.44z M50.37,24.28c0.64-0.55,1.6-0.48,2.15,0.16 c0.55,0.64,0.48,1.6-0.16,2.15l-4.43,3.82c-0.64,0.55-1.6,0.48-2.15-0.16c-0.55-0.64-0.48-1.6,0.16-2.15L50.37,24.28L50.37,24.28z M39.16,14.06c0.84,0,1.53,0.68,1.53,1.52c0,0.84-0.68,1.53-1.52,1.53l-5.85,0.03c-0.84,0-1.53-0.68-1.53-1.52 c0-0.84,0.68-1.53,1.52-1.53L39.16,14.06L39.16,14.06z M71.57,22.74c0.02-0.84,0.72-1.51,1.57-1.48c0.84,0.02,1.51,0.72,1.48,1.57 l-0.16,5.85c-0.02,0.84-0.72,1.51-1.57,1.48c-0.84-0.02-1.51-0.72-1.48-1.57L71.57,22.74L71.57,22.74z M6.31,79.72 c10.88,2.77,23.26,2.73,34.43,2.05c-5.14-5.23-8.31-12.41-8.31-20.32c0-8.01,3.25-15.26,8.5-20.51c5.25-5.25,12.5-8.5,20.51-8.5 c8.01,0,15.26,3.25,20.51,8.5c5.25,5.25,8.5,12.5,8.5,20.51c0,5.43-1.49,10.51-4.09,14.85c12.02-1.74,23.57-6.78,32.05-3.59 c0.72-3.64,1.09-7.41,1.09-11.26c0-16.04-6.5-30.55-17.01-41.06C91.99,9.87,77.47,3.37,61.44,3.37s-30.55,6.5-41.06,17.01 S3.37,45.4,3.37,61.44C3.37,67.83,4.4,73.97,6.31,79.72L6.31,79.72z M64.54,86.83c5.54-0.68,10.85-3.13,14.98-7.22l0.01-0.01 l0.11-0.11c4.59-4.63,7.43-11.01,7.43-18.05c0-7.08-2.87-13.49-7.51-18.13c-4.64-4.64-11.05-7.51-18.13-7.51 c-7.08,0-13.49,2.87-18.13,7.51c-4.64,4.64-7.51,11.05-7.51,18.13c0,7.08,2.87,13.49,7.51,18.13 C48.88,85.13,56.64,87.8,64.54,86.83L64.54,86.83z"/></g></svg>